<svg width="72" height="57" viewBox="0 0 72 57" fill="none" xmlns="http://www.w3.org/2000/svg">
<g clip-path="url(#clip0_56_420)">
<path d="M21.313 28.5C28.1843 28.5 33.7457 22.9225 33.7457 16.0312C33.7457 9.14004 28.1843 3.5625 21.313 3.5625C14.4418 3.5625 8.88044 9.14004 8.88044 16.0312C8.88044 22.9225 14.4418 28.5 21.313 28.5ZM29.8383 32.0625H28.9169C26.608 33.1758 24.0438 33.8438 21.313 33.8438C18.5823 33.8438 16.0292 33.1758 13.7092 32.0625H12.7878C5.72788 32.0625 0 37.807 0 44.8875V48.0938C0 51.0439 2.38662 53.4375 5.32826 53.4375H37.2978C40.2395 53.4375 42.6261 51.0439 42.6261 48.0938V44.8875C42.6261 37.807 36.8982 32.0625 29.8383 32.0625ZM53.2826 28.5C59.1659 28.5 63.9391 23.7129 63.9391 17.8125C63.9391 11.9121 59.1659 7.125 53.2826 7.125C47.3993 7.125 42.6261 11.9121 42.6261 17.8125C42.6261 23.7129 47.3993 28.5 53.2826 28.5ZM58.6109 32.0625H58.1891C56.6461 32.5969 55.0143 32.9531 53.2826 32.9531C51.5509 32.9531 49.9191 32.5969 48.3762 32.0625H47.9544C45.6898 32.0625 43.6029 32.7193 41.7713 33.777C44.4799 36.7049 46.1783 40.5902 46.1783 44.8875V49.1625C46.1783 49.4074 46.1228 49.6412 46.1117 49.875H65.7152C68.6569 49.875 71.0435 47.4814 71.0435 44.5312C71.0435 37.64 65.4821 32.0625 58.6109 32.0625Z" fill="#F7F5F3"/>
</g>
<defs>
<clipPath id="clip0_56_420">
<rect width="71.0435" height="57" fill="white"/>
</clipPath>
</defs>
</svg>
