<svg width="71" height="57" viewBox="0 0 71 57" fill="none" xmlns="http://www.w3.org/2000/svg">
<g clip-path="url(#clip0_56_404)">
<path d="M45.942 3.55582C45.942 2.42139 45.0695 0 42.419 0C40.8751 0 39.4516 1.00997 39.0076 2.58059L24.8716 52.4556C24.7788 52.7823 24.7346 53.1115 24.7346 53.4354C24.6386 54.5842 25.6215 57 28.272 57C29.8093 57 31.224 55.9806 31.668 54.415L45.804 4.53996C45.8978 4.20932 45.942 3.87979 45.942 3.55582ZM19.437 15.9311C19.437 13.896 17.786 12.3686 15.903 12.3686C14.9987 12.3686 14.094 12.7165 13.4049 13.4124L1.0359 25.8811C0.345117 26.6742 0 27.5871 0 28.3998C0 29.2125 0.345117 30.3258 1.03535 31.016L13.4044 43.4848C14.0918 44.1861 14.9974 44.4311 15.903 44.4311C17.786 44.4311 19.437 42.9025 19.437 40.8686C19.437 39.957 19.0919 39.045 18.4016 38.3492L8.5313 28.3998L18.4022 18.4493C19.0946 17.8459 19.437 16.9441 19.437 15.9311ZM70.68 28.3998C70.68 27.4883 70.3349 26.5763 69.6446 25.8804L57.2756 13.4117C56.5882 12.8139 55.6826 12.3686 54.777 12.3686C52.894 12.3686 51.243 13.8971 51.243 15.9311C51.243 16.8426 51.5881 17.7546 52.2784 18.4504L62.1493 28.4009L52.2784 38.3514C51.5854 39.143 51.243 40.0559 51.243 40.8686C51.243 42.9036 52.894 44.4311 54.777 44.4311C55.6813 44.4311 56.586 44.0832 57.2751 43.3872L69.6441 30.9185C70.3376 30.3258 70.68 29.4129 70.68 28.3998Z" fill="#F7F5F3"/>
</g>
<defs>
<clipPath id="clip0_56_404">
<rect width="70.68" height="57" fill="white"/>
</clipPath>
</defs>
</svg>
