<svg width="57" height="57" viewBox="0 0 57 57" fill="none" xmlns="http://www.w3.org/2000/svg">
<path d="M11 35H6C3.25 35 1 36.53 1 38.4V48.6C1 50.47 3.25 52 6 52H11C13.75 52 16 50.47 16 48.6V38.4C16 36.53 13.75 35 11 35Z" fill="#F7F5F3"/>
<path d="M47 9H42C39.25 9 37 10.935 37 13.3V47.7C37 50.065 39.25 52 42 52H47C49.75 52 52 50.065 52 47.7V13.3C52 10.935 49.75 9 47 9Z" fill="#F7F5F3"/>
<path d="M29 22H24C21.25 22 19 23.9286 19 26.2857V47.7143C19 50.0714 21.25 52 24 52H29C31.75 52 34 50.0714 34 47.7143V26.2857C34 23.9286 31.75 22 29 22Z" fill="#F7F5F3"/>
</svg>
